<?xml version="1.0" encoding="utf-8"?>
<!-- Generator: Adobe Illustrator 16.0.0, SVG Export Plug-In . SVG Version: 6.00 Build 0)  -->
<!DOCTYPE svg PUBLIC "-//W3C//DTD SVG 1.1//EN" "http://www.w3.org/Graphics/SVG/1.1/DTD/svg11.dtd">
<svg version="1.1" id="Layer_1" xmlns="http://www.w3.org/2000/svg" xmlns:xlink="http://www.w3.org/1999/xlink" x="0px" y="0px"
	 width="483px" height="18px" viewBox="0 20 483 18" enable-background="new 0 20 483 18" xml:space="preserve">
<g>
	<g>
		<path fill="#494A41" d="M2.26,36v-0.792l1.134-0.126c0.252-0.035,0.288-0.09,0.288-0.359V24.261c0-0.27-0.036-0.342-0.288-0.36
			L2.26,23.775v-0.812h4.412v0.812l-1.495,0.144c-0.27,0.019-0.288,0.09-0.288,0.342v10.731h5.113c0.198,0,0.252-0.018,0.288-0.198
			l0.288-1.565h0.9V36H2.26z"/>
		<path fill="#494A41" d="M19.533,36l-0.162-1.206l-0.054-0.019c-0.954,0.883-1.962,1.439-3.331,1.439
			c-2.25,0-2.502-1.549-2.502-2.396c0-1.801,1.116-2.557,3.241-2.756l2.575-0.231v-1.008c0-1.513-0.306-2.179-2.052-2.179
			c-1.207,0-2.125,0-2.143,1.457l-1.152-0.144c0-2.125,1.981-2.341,3.313-2.341c2.467,0,3.241,0.72,3.241,3.169v4.935
			c0,0.286,0.018,0.323,0.288,0.358l0.936,0.126V36H19.533z M19.299,31.787l-2.358,0.217c-1.729,0.162-2.197,0.666-2.197,1.674
			c0,1.08,0.54,1.53,1.477,1.53c1.242,0,2.413-0.81,3.079-1.692L19.299,31.787L19.299,31.787z"/>
		<path fill="#494A41" d="M23.919,36c0.09-0.611,0.198-1.691,0.198-2.557v-9.562c0-0.196-0.054-0.323-0.234-0.378l-1.099-0.342
			l0.144-0.756h2.395c0,5.312,0,5.312,0,5.312c0.864-0.521,1.908-1.098,3.205-1.098c2.035,0,3.367,1.313,3.367,4.412
			c0,3.709-1.513,5.186-3.781,5.186c-1.062,0-1.999-0.307-2.863-1.079l-0.036,0.019L25.126,36H23.919z M25.324,33.84
			c0.666,0.702,1.692,1.332,2.683,1.332c1.999,0,2.701-1.529,2.701-3.997c0-2.7-1.062-3.493-2.376-3.493
			c-1.207,0-2.305,0.648-3.007,1.152L25.324,33.84L25.324,33.84z"/>
		<path fill="#494A41" d="M33.935,31.373c0-2.809,1.405-4.753,4.394-4.753c2.971,0,4.123,1.944,4.123,4.627
			c0,3.007-1.333,4.97-4.303,4.97C35.159,36.217,33.935,34.2,33.935,31.373z M41.209,31.373c0-2.467-0.937-3.691-2.917-3.691
			c-1.999,0-3.115,1.242-3.115,3.709c0,2.465,1.026,3.836,3.025,3.836C40.183,35.227,41.209,33.912,41.209,31.373z"/>
		<path fill="#494A41" d="M44.043,36v-0.811l0.936-0.107c0.252-0.035,0.288-0.09,0.288-0.359v-6.447
			c0-0.196-0.054-0.322-0.234-0.377l-1.044-0.342l0.144-0.757h2.053l0.162,1.152c0.594-0.558,1.53-1.333,2.791-1.333
			c0.414,0,0.864,0.072,1.188,0.162v2.503l-0.918-0.054l-0.234-1.369c-0.018-0.125-0.036-0.161-0.217-0.161
			c-0.954,0-2.017,0.864-2.485,1.332v5.69c0,0.285,0.018,0.322,0.288,0.357l1.621,0.126V36H44.043z"/>
		<path fill="#494A41" d="M57.903,36l-0.162-1.206l-0.054-0.019c-0.954,0.883-1.962,1.439-3.331,1.439
			c-2.25,0-2.502-1.549-2.502-2.396c0-1.801,1.116-2.557,3.241-2.756l2.575-0.231v-1.008c0-1.513-0.306-2.179-2.052-2.179
			c-1.207,0-2.125,0-2.143,1.457l-1.152-0.144c0-2.125,1.981-2.341,3.313-2.341c2.467,0,3.241,0.72,3.241,3.169v4.935
			c0,0.286,0.018,0.323,0.288,0.358l0.936,0.126V36H57.903z M57.669,31.787l-2.358,0.217c-1.729,0.162-2.197,0.666-2.197,1.674
			c0,1.08,0.54,1.53,1.477,1.53c1.242,0,2.413-0.81,3.079-1.692L57.669,31.787L57.669,31.787z"/>
		<path fill="#494A41" d="M67.131,35.713c-0.685,0.27-1.458,0.504-2.323,0.504c-1.566,0-2.323-0.793-2.323-2.232v-5.995
			c0-0.108,0-0.181-0.144-0.181h-1.333v-0.811c1.333-0.18,1.639-0.648,1.873-2.432h0.811v2.054c0,0.108,0,0.18,0.144,0.18h2.683
			v1.009h-2.827v5.726c0,1.151,0.324,1.604,1.368,1.604c0.594,0,1.207-0.162,1.729-0.359L67.131,35.713z"/>
		<path fill="#494A41" d="M68.384,31.373c0-2.809,1.405-4.753,4.394-4.753c2.971,0,4.123,1.944,4.123,4.627
			c0,3.007-1.333,4.97-4.303,4.97C69.608,36.217,68.384,34.2,68.384,31.373z M75.658,31.373c0-2.467-0.937-3.691-2.917-3.691
			c-1.999,0-3.115,1.242-3.115,3.709c0,2.465,1.026,3.836,3.025,3.836C74.632,35.227,75.658,33.912,75.658,31.373z"/>
		<path fill="#494A41" d="M78.177,36v-0.811l1.297-0.107c0.252-0.035,0.288-0.09,0.288-0.359v-6.447
			c0-0.196-0.054-0.322-0.234-0.377l-1.044-0.342l0.143-0.757h2.341v7.923c0,0.287,0.018,0.324,0.288,0.359l1.26,0.126V36H78.177z
			 M80.122,24.566c-0.612,0-0.972-0.342-0.972-0.953c0-0.612,0.36-0.954,0.972-0.954c0.612,0,0.972,0.341,0.972,0.954
			S80.734,24.566,80.122,24.566z"/>
		<path fill="#494A41" d="M84.244,36v-0.811l0.937-0.107c0.252-0.035,0.288-0.09,0.288-0.359v-6.447
			c0-0.196-0.054-0.322-0.234-0.377l-1.044-0.342l0.142-0.757h2.053l0.162,1.152c0.594-0.558,1.53-1.333,2.791-1.333
			c0.414,0,0.864,0.072,1.188,0.162v2.503l-0.918-0.054l-0.234-1.369c-0.018-0.125-0.036-0.161-0.216-0.161
			c-0.955,0-2.017,0.864-2.485,1.332v5.69c0,0.285,0.018,0.322,0.288,0.357l1.621,0.126V36H84.244z"/>
		<path fill="#494A41" d="M99.418,35.461c-0.811,0.469-1.836,0.756-3.097,0.756c-3.187,0-4.195-2.143-4.195-4.861
			c0-3.223,1.765-4.734,3.961-4.734c2.125,0,3.619,1.17,3.619,4.25c0,0.252-0.018,0.504-0.036,0.771h-6.284
			c0.054,2.053,0.846,3.478,3.025,3.478c1.116,0,1.692-0.198,2.557-0.666L99.418,35.461z M98.463,30.671
			c-0.036-2.231-1.098-2.989-2.358-2.989c-1.369,0-2.521,0.756-2.683,2.989H98.463z"/>
		<path fill="#494A41" d="M113.025,36l-0.144-1.225l-0.054-0.02c-0.864,0.812-1.801,1.459-3.241,1.459
			c-2.035,0-3.367-1.312-3.367-4.592c0-3.512,1.513-5.005,3.745-5.005c1.099,0,2.125,0.378,2.827,0.882v-3.636
			c0-0.181-0.072-0.308-0.234-0.36l-1.098-0.342l0.144-0.756h2.395v12.314c0,0.287,0.018,0.324,0.288,0.359l0.937,0.126V36H113.025z
			 M112.792,28.816c-0.594-0.576-1.675-1.152-2.809-1.152c-1.836,0-2.575,1.566-2.575,3.926c0,2.809,1.044,3.564,2.341,3.564
			c1.242,0,2.215-0.721,3.043-1.692V28.816z"/>
		<path fill="#494A41" d="M117.466,25.684l0.522-1.691c0.018-0.092,0-0.126-0.09-0.162l-0.522-0.232l0.36-1.188
			c0.955,0.054,1.566,0.18,1.566,0.973c0,0.252-0.108,0.486-0.234,0.738l-0.954,1.817L117.466,25.684z"/>
		<path fill="#494A41" d="M127.579,35.461c-0.811,0.469-1.837,0.756-3.097,0.756c-3.187,0-4.195-2.143-4.195-4.861
			c0-3.223,1.765-4.734,3.961-4.734c2.125,0,3.619,1.17,3.619,4.25c0,0.252-0.018,0.504-0.036,0.771h-6.284
			c0.054,2.053,0.846,3.478,3.025,3.478c1.116,0,1.692-0.198,2.557-0.666L127.579,35.461z M126.624,30.671
			c-0.036-2.231-1.098-2.989-2.358-2.989c-1.369,0-2.521,0.756-2.683,2.989H126.624z"/>
		<path fill="#494A41" d="M135.138,36v-0.792l1.225-0.161l-2.251-2.936l-2.269,2.936l1.243,0.161V36h-3.781v-0.792l1.008-0.198
			c0.198-0.035,0.27-0.107,0.414-0.287l2.647-3.402l-2.467-3.225c-0.144-0.18-0.216-0.231-0.432-0.306l-0.811-0.198l0.18-0.792
			h3.385v0.792l-1.206,0.145l2.125,2.755l2.179-2.755l-1.207-0.145l0.18-0.792h3.331v0.792l-0.846,0.18
			c-0.216,0.072-0.306,0.162-0.45,0.344l-2.449,3.133l2.647,3.438c0.162,0.198,0.252,0.289,0.468,0.323l1.081,0.198V36H135.138z"/>
		<path fill="#494A41" d="M147.401,35.514c-0.63,0.416-1.818,0.703-2.953,0.703c-3.007,0-4.268-1.945-4.268-4.718
			c0-3.438,1.945-4.879,4.627-4.879c1.296,0,2.215,0.342,2.557,0.485v2.215l-0.918-0.055l-0.216-1.188
			c-0.018-0.106-0.036-0.181-0.198-0.234c-0.252-0.09-0.811-0.18-1.369-0.18c-1.8,0-3.223,1.024-3.223,3.78
			c0,2.594,1.242,3.69,3.169,3.69c0.9,0,1.729-0.252,2.322-0.631L147.401,35.514z"/>
		<path fill="#494A41" d="M156.373,35.461c-0.811,0.469-1.837,0.756-3.097,0.756c-3.187,0-4.195-2.143-4.195-4.861
			c0-3.223,1.765-4.734,3.961-4.734c2.125,0,3.619,1.17,3.619,4.25c0,0.252-0.018,0.504-0.036,0.771h-6.284
			c0.054,2.053,0.846,3.478,3.025,3.478c1.116,0,1.692-0.198,2.557-0.666L156.373,35.461z M155.418,30.671
			c-0.036-2.231-1.098-2.989-2.358-2.989c-1.369,0-2.521,0.756-2.683,2.989H155.418z"/>
		<path fill="#494A41" d="M158.304,36v-0.811l1.207-0.107c0.252-0.018,0.288-0.09,0.288-0.359v-10.84
			c0-0.197-0.054-0.324-0.234-0.378l-1.098-0.342l0.144-0.756h2.395v12.315c0,0.286,0.018,0.323,0.288,0.358l1.17,0.126V36H158.304z
			"/>
		<path fill="#494A41" d="M164.101,36v-0.811l1.206-0.107c0.252-0.018,0.288-0.09,0.288-0.359v-10.84
			c0-0.197-0.054-0.324-0.234-0.378l-1.098-0.342l0.144-0.756h2.395v12.315c0,0.286,0.018,0.323,0.288,0.358l1.17,0.126V36H164.101z
			"/>
		<path fill="#494A41" d="M176.788,35.461c-0.811,0.469-1.837,0.756-3.097,0.756c-3.187,0-4.195-2.143-4.195-4.861
			c0-3.223,1.765-4.734,3.961-4.734c2.125,0,3.619,1.17,3.619,4.25c0,0.252-0.018,0.504-0.036,0.771h-6.284
			c0.054,2.053,0.846,3.478,3.025,3.478c1.116,0,1.692-0.198,2.557-0.666L176.788,35.461z M175.833,30.671
			c-0.036-2.231-1.098-2.989-2.358-2.989c-1.369,0-2.521,0.756-2.683,2.989H175.833z"/>
		<path fill="#494A41" d="M185.029,36v-0.811l0.937-0.107c0.252-0.035,0.288-0.072,0.288-0.342v-4.321
			c0-1.854-0.504-2.701-1.837-2.701c-1.314,0-2.593,0.847-3.133,1.351v5.654c0,0.287,0.018,0.324,0.288,0.359l1.081,0.126V36h-3.799
			v-0.811l0.936-0.107c0.252-0.035,0.288-0.09,0.288-0.359v-6.447c0-0.196-0.054-0.322-0.234-0.377l-1.044-0.342l0.144-0.757h2.035
			l0.144,1.116l0.054,0.018c0.9-0.666,2.053-1.312,3.493-1.312c2.106,0,2.791,1.333,2.791,3.421v4.683
			c0,0.286,0.018,0.323,0.288,0.358l1.081,0.126V36H185.029z"/>
		<path fill="#494A41" d="M197.336,35.514c-0.63,0.416-1.818,0.703-2.953,0.703c-3.007,0-4.268-1.945-4.268-4.718
			c0-3.438,1.945-4.879,4.627-4.879c1.296,0,2.215,0.342,2.557,0.485v2.215l-0.918-0.055l-0.216-1.188
			c-0.018-0.106-0.036-0.181-0.198-0.234c-0.252-0.09-0.811-0.18-1.369-0.18c-1.8,0-3.223,1.024-3.223,3.78
			c0,2.594,1.242,3.69,3.169,3.69c0.9,0,1.729-0.252,2.322-0.631L197.336,35.514z"/>
		<path fill="#494A41" d="M206.308,35.461c-0.811,0.469-1.836,0.756-3.097,0.756c-3.187,0-4.195-2.143-4.195-4.861
			c0-3.223,1.765-4.734,3.961-4.734c2.125,0,3.619,1.17,3.619,4.25c0,0.252-0.018,0.504-0.036,0.771h-6.284
			c0.054,2.053,0.846,3.478,3.025,3.478c1.116,0,1.692-0.198,2.557-0.666L206.308,35.461z M205.353,30.671
			c-0.036-2.231-1.098-2.989-2.358-2.989c-1.369,0-2.521,0.756-2.683,2.989H205.353z"/>
		<path fill="#EC2137" d="M251.938,35.279c-0.936,0.647-2.592,0.938-4.248,0.938c-4.355,0-6.084-2.846-6.084-6.842
			c0-3.8,2.106-6.645,6.375-6.645c1.621,0,3.062,0.377,3.926,0.953v2.629l-0.918-0.055l-0.307-1.691
			c-0.02-0.146-0.037-0.252-0.234-0.324c-0.686-0.252-1.604-0.45-2.557-0.45c-3.043,0-5.023,1.999-5.023,5.601
			c0,3.765,1.873,5.762,4.896,5.762c0.92,0,2.053-0.09,2.811-0.432c0.125-0.056,0.197-0.127,0.232-0.308l0.287-1.603h0.848v2.467
			H251.938z"/>
		<path fill="#EC2137" d="M254.057,36v-0.811l0.938-0.107c0.252-0.035,0.287-0.09,0.287-0.359v-6.447
			c0-0.196-0.054-0.322-0.234-0.377l-1.044-0.342l0.145-0.757h2.054l0.162,1.152c0.595-0.558,1.53-1.333,2.79-1.333
			c0.414,0,0.865,0.072,1.188,0.162v2.503l-0.918-0.056l-0.233-1.367c-0.02-0.127-0.035-0.162-0.215-0.162
			c-0.955,0-2.019,0.863-2.484,1.332v5.689c0,0.286,0.018,0.323,0.287,0.358l1.621,0.126V36H254.057z"/>
		<path fill="#EC2137" d="M269.195,35.461c-0.812,0.469-1.836,0.756-3.098,0.756c-3.188,0-4.195-2.143-4.195-4.861
			c0-3.223,1.766-4.734,3.962-4.734c2.124,0,3.618,1.17,3.618,4.25c0,0.252-0.02,0.504-0.035,0.771h-6.283
			c0.053,2.053,0.846,3.478,3.023,3.478c1.117,0,1.691-0.198,2.558-0.666L269.195,35.461z M268.24,30.671
			c-0.035-2.231-1.098-2.989-2.357-2.989c-1.369,0-2.521,0.756-2.684,2.989H268.24z M264.748,25.755l-0.576-0.575l2.791-2.882
			l0.936,0.955L264.748,25.755z"/>
		<path fill="#EC2137" d="M277.164,36l-0.162-1.206l-0.055-0.019c-0.954,0.883-1.963,1.439-3.331,1.439
			c-2.251,0-2.503-1.549-2.503-2.396c0-1.801,1.117-2.557,3.24-2.756l2.576-0.231v-1.008c0-1.513-0.309-2.179-2.055-2.179
			c-1.207,0-2.125,0-2.145,1.457l-1.15-0.144c0-2.125,1.979-2.341,3.312-2.341c2.467,0,3.24,0.72,3.24,3.169v4.935
			c0,0.286,0.02,0.323,0.288,0.358l0.937,0.126V36H277.164z M276.93,31.787l-2.359,0.217c-1.729,0.162-2.194,0.666-2.194,1.674
			c0,1.08,0.54,1.53,1.478,1.53c1.241,0,2.414-0.81,3.08-1.692v-1.729H276.93z"/>
		<path fill="#EC2137" d="M286.355,35.713c-0.686,0.27-1.459,0.504-2.322,0.504c-1.566,0-2.322-0.793-2.322-2.232v-5.995
			c0-0.108,0-0.181-0.145-0.181h-1.332v-0.811c1.332-0.18,1.639-0.648,1.871-2.432h0.812v2.054c0,0.108,0,0.18,0.144,0.18h2.686
			v1.009h-2.827v5.726c0,1.151,0.323,1.604,1.368,1.604c0.594,0,1.207-0.162,1.729-0.359L286.355,35.713z"/>
		<path fill="#EC2137" d="M287.967,36v-0.811l1.297-0.107c0.252-0.035,0.287-0.09,0.287-0.359v-6.447
			c0-0.196-0.054-0.322-0.234-0.377l-1.043-0.342l0.145-0.757h2.342v7.923c0,0.287,0.02,0.324,0.287,0.359l1.262,0.126V36H287.967z
			 M289.911,24.566c-0.612,0-0.972-0.342-0.972-0.953c0-0.612,0.357-0.954,0.972-0.954c0.612,0,0.972,0.342,0.972,0.954
			C290.883,24.225,290.523,24.566,289.911,24.566z"/>
		<path fill="#EC2137" d="M293.441,31.373c0-2.809,1.404-4.753,4.395-4.753c2.971,0,4.123,1.944,4.123,4.627
			c0,3.007-1.332,4.97-4.305,4.97C294.666,36.217,293.441,34.2,293.441,31.373z M300.717,31.373c0-2.467-0.938-3.691-2.918-3.691
			c-1.998,0-3.113,1.242-3.113,3.709c0,2.465,1.025,3.836,3.023,3.836C299.689,35.227,300.717,33.912,300.717,31.373z"/>
		<path fill="#EC2137" d="M309.689,36v-0.811l0.938-0.107c0.252-0.035,0.288-0.072,0.288-0.342v-4.321
			c0-1.854-0.505-2.701-1.837-2.701c-1.314,0-2.594,0.847-3.133,1.351v5.654c0,0.287,0.018,0.324,0.287,0.359l1.082,0.126V36h-3.801
			v-0.811l0.938-0.107c0.252-0.035,0.287-0.09,0.287-0.359v-6.447c0-0.196-0.053-0.322-0.233-0.377l-1.044-0.342l0.145-0.757h2.033
			l0.146,1.116l0.055,0.018c0.898-0.666,2.055-1.312,3.492-1.312c2.105,0,2.791,1.333,2.791,3.421v4.683
			c0,0.286,0.02,0.323,0.288,0.358l1.081,0.126V36H309.689z"/>
		<path fill="#EC2137" d="M336.061,36v-0.792l1.494-0.161l-1.098-3.242h-5.258l-1.08,3.242l1.458,0.161V36h-3.728v-0.792
			l0.772-0.198c0.216-0.054,0.358-0.125,0.435-0.342l3.979-11.703h1.656l4.07,11.739c0.07,0.216,0.195,0.252,0.412,0.306
			l0.828,0.198V36H336.061z M333.846,23.955l-2.287,6.788h4.558L333.846,23.955z"/>
		<path fill="#EC2137" d="M341.721,36v-0.811l0.938-0.107c0.252-0.035,0.286-0.09,0.286-0.359v-6.447
			c0-0.196-0.053-0.322-0.233-0.377l-1.044-0.342l0.145-0.757h2.054l0.161,1.152c0.596-0.558,1.531-1.333,2.791-1.333
			c0.414,0,0.865,0.072,1.188,0.162v2.503l-0.918-0.056l-0.233-1.367c-0.02-0.127-0.035-0.162-0.217-0.162
			c-0.953,0-2.017,0.863-2.482,1.332v5.689c0,0.286,0.018,0.323,0.287,0.358l1.621,0.126V36H341.721z"/>
		<path fill="#EC2137" d="M355.666,35.713c-0.686,0.27-1.459,0.504-2.323,0.504c-1.565,0-2.323-0.793-2.323-2.232v-5.995
			c0-0.108,0-0.181-0.144-0.181h-1.333v-0.811c1.333-0.18,1.639-0.648,1.873-2.432h0.811v2.054c0,0.108,0,0.18,0.146,0.18h2.682
			v1.009h-2.824v5.726c0,1.151,0.322,1.604,1.367,1.604c0.596,0,1.205-0.162,1.729-0.359L355.666,35.713z"/>
		<path fill="#EC2137" d="M362.82,29.268l-0.217-1.188c-0.02-0.107-0.035-0.182-0.197-0.232c-0.252-0.092-0.848-0.218-1.494-0.218
			c-1.495,0-2.107,0.687-2.107,1.53c0,1.135,1.098,1.402,2.287,1.711c1.387,0.357,2.916,0.771,2.916,2.664
			c0,2.033-1.729,2.684-3.475,2.684c-1.404,0-2.826-0.412-3.15-0.594V33.41l0.918,0.054l0.217,1.188
			c0.02,0.106,0.035,0.181,0.197,0.233c0.252,0.091,0.954,0.323,1.944,0.323c1.313,0,2.179-0.484,2.179-1.564
			c0-1.17-1.045-1.459-2.197-1.746c-1.422-0.344-2.988-0.687-2.988-2.594c0-1.98,1.676-2.684,3.439-2.684
			c1.242,0,2.322,0.342,2.646,0.484v2.215L362.82,29.268z"/>
		<path fill="#EC2137" d="M379.648,36v-0.792l1.135-0.126c0.252-0.035,0.287-0.09,0.287-0.359V24.261c0-0.27-0.035-0.342-0.287-0.36
			l-1.135-0.125v-0.811h5.348c3.331,0,4.34,1.764,4.34,3.835c0,3.079-1.891,4.231-4.934,4.231h-2.145v3.673
			c0,0.288,0.02,0.343,0.287,0.36l2.575,0.144V36H379.648z M384.365,29.969c2.07,0,3.71-0.449,3.71-3.133
			c0-1.963-1.044-2.827-3.438-2.827h-2.377v5.96H384.365z"/>
		<path fill="#EC2137" d="M397.158,36l-0.162-1.206l-0.055-0.019c-0.953,0.883-1.961,1.439-3.33,1.439
			c-2.25,0-2.502-1.549-2.502-2.396c0-1.801,1.115-2.557,3.24-2.756l2.572-0.231v-1.008c0-1.513-0.306-2.179-2.053-2.179
			c-1.205,0-2.124,0-2.145,1.457l-1.15-0.144c0-2.125,1.98-2.341,3.312-2.341c2.467,0,3.24,0.72,3.24,3.169v4.935
			c0,0.286,0.018,0.323,0.288,0.358l0.937,0.126V36H397.158z M396.924,31.787l-2.357,0.217c-1.729,0.162-2.195,0.666-2.195,1.674
			c0,1.08,0.54,1.53,1.479,1.53c1.24,0,2.41-0.81,3.076-1.692L396.924,31.787L396.924,31.787z"/>
		<path fill="#EC2137" d="M406.352,35.713c-0.686,0.27-1.459,0.504-2.322,0.504c-1.565,0-2.322-0.793-2.322-2.232v-5.995
			c0-0.108,0-0.181-0.145-0.181h-1.334v-0.811c1.334-0.18,1.641-0.648,1.873-2.432h0.812v2.054c0,0.108,0,0.18,0.146,0.18h2.682
			v1.009h-2.826v5.726c0,1.151,0.324,1.604,1.368,1.604c0.595,0,1.206-0.162,1.729-0.359L406.352,35.713z"/>
		<path fill="#EC2137" d="M408.141,36v-0.811l0.938-0.107c0.252-0.035,0.289-0.09,0.289-0.359v-6.447
			c0-0.196-0.057-0.322-0.234-0.377l-1.045-0.342l0.145-0.757h2.053l0.162,1.152c0.594-0.558,1.529-1.333,2.791-1.333
			c0.414,0,0.863,0.072,1.188,0.162v2.503l-0.918-0.056l-0.234-1.367c-0.018-0.127-0.035-0.162-0.215-0.162
			c-0.955,0-2.018,0.863-2.486,1.332v5.689c0,0.286,0.021,0.323,0.289,0.358l1.621,0.126V36H408.141z"/>
		<path fill="#EC2137" d="M415.789,36v-0.811l1.297-0.107c0.252-0.035,0.289-0.09,0.289-0.359v-6.447
			c0-0.196-0.055-0.322-0.234-0.377l-1.045-0.342l0.146-0.757h2.34v7.923c0,0.287,0.021,0.324,0.289,0.359l1.26,0.126V36H415.789z
			 M417.734,24.566c-0.612,0-0.973-0.342-0.973-0.953c0-0.612,0.358-0.954,0.973-0.954c0.613,0,0.973,0.342,0.973,0.954
			C418.707,24.225,418.348,24.566,417.734,24.566z"/>
		<path fill="#EC2137" d="M433.199,36v-0.811l0.936-0.107c0.253-0.035,0.289-0.072,0.289-0.342v-4.321
			c0-1.782-0.324-2.701-1.729-2.701c-1.08,0-2.089,0.576-2.755,1.062c0.054,0.345,0.069,0.738,0.069,1.173v4.771
			c0,0.286,0.021,0.323,0.289,0.358l0.938,0.126V36h-3.603v-0.811l0.882-0.107c0.252-0.035,0.289-0.072,0.289-0.342v-4.412
			c0-1.781-0.217-2.61-1.549-2.61c-1.351,0-2.482,0.864-3.008,1.351v5.654c0,0.287,0.019,0.324,0.289,0.359l1.08,0.126V36h-3.799
			v-0.811l0.936-0.107c0.252-0.035,0.289-0.09,0.289-0.359v-6.447c0-0.196-0.055-0.322-0.234-0.377l-1.045-0.342l0.146-0.757h2.034
			l0.144,1.116l0.055,0.018c0.738-0.576,1.873-1.312,3.387-1.312c1.17,0,1.801,0.414,2.143,1.17c0.865-0.611,1.945-1.17,3.295-1.17
			c2.107,0,2.665,1.333,2.665,3.421v4.683c0,0.286,0.021,0.323,0.288,0.358l1.08,0.126V36H433.199z"/>
		<path fill="#EC2137" d="M438.282,31.373c0-2.809,1.405-4.753,4.394-4.753c2.973,0,4.123,1.944,4.123,4.627
			c0,3.007-1.332,4.97-4.303,4.97C439.507,36.217,438.282,34.2,438.282,31.373z M445.557,31.373c0-2.467-0.937-3.691-2.917-3.691
			c-1.999,0-3.112,1.242-3.112,3.709c0,2.465,1.023,3.836,3.022,3.836C444.53,35.227,445.557,33.912,445.557,31.373z"/>
		<path fill="#EC2137" d="M448.039,36v-0.811l1.297-0.107c0.252-0.035,0.289-0.09,0.289-0.359v-6.447
			c0-0.196-0.055-0.322-0.234-0.377l-1.045-0.342l0.146-0.757h2.34v7.923c0,0.287,0.019,0.324,0.289,0.359l1.26,0.126V36H448.039z
			 M449.984,24.566c-0.612,0-0.975-0.342-0.975-0.953c0-0.612,0.36-0.954,0.975-0.954c0.611,0,0.973,0.342,0.973,0.954
			C450.957,24.225,450.597,24.566,449.984,24.566z"/>
		<path fill="#EC2137" d="M460.246,36v-0.811l0.936-0.107c0.252-0.035,0.289-0.072,0.289-0.342v-4.321
			c0-1.854-0.505-2.701-1.838-2.701c-1.312,0-2.592,0.847-3.133,1.351v5.654c0,0.287,0.019,0.324,0.289,0.359l1.08,0.126V36h-3.799
			v-0.811l0.936-0.107c0.252-0.035,0.289-0.09,0.289-0.359v-6.447c0-0.196-0.055-0.322-0.234-0.377l-1.045-0.342l0.146-0.757h2.034
			l0.144,1.116l0.055,0.018c0.9-0.666,2.055-1.312,3.493-1.312c2.106,0,2.79,1.333,2.79,3.421v4.683
			c0,0.286,0.021,0.323,0.289,0.358l1.08,0.126V36H460.246z"/>
		<path fill="#EC2137" d="M472.606,35.461c-0.812,0.469-1.839,0.756-3.099,0.756c-3.188,0-4.193-2.143-4.193-4.861
			c0-3.223,1.764-4.734,3.961-4.734c2.125,0,3.617,1.17,3.617,4.25c0,0.252-0.018,0.504-0.034,0.771h-6.284
			c0.055,2.053,0.847,3.478,3.023,3.478c1.116,0,1.692-0.198,2.559-0.666L472.606,35.461z M471.652,30.671
			c-0.036-2.231-1.101-2.989-2.359-2.989c-1.368,0-2.521,0.756-2.683,2.989H471.652z"/>
		<path fill="#EC2137" d="M480.002,29.268l-0.217-1.188c-0.02-0.107-0.035-0.182-0.197-0.232c-0.252-0.092-0.847-0.218-1.494-0.218
			c-1.495,0-2.105,0.687-2.105,1.53c0,1.135,1.098,1.402,2.287,1.711c1.387,0.357,2.916,0.771,2.916,2.664
			c0,2.033-1.729,2.684-3.477,2.684c-1.404,0-2.826-0.412-3.148-0.594V33.41l0.918,0.054l0.216,1.188
			c0.019,0.106,0.036,0.181,0.198,0.233c0.252,0.091,0.952,0.323,1.942,0.323c1.314,0,2.179-0.484,2.179-1.564
			c0-1.17-1.045-1.459-2.195-1.746c-1.422-0.344-2.988-0.687-2.988-2.594c0-1.98,1.674-2.684,3.439-2.684
			c1.24,0,2.32,0.342,2.646,0.484v2.215L480.002,29.268z"/>
	</g>
</g>
</svg>
