<?xml version="1.0" encoding="utf-8"?>
<!-- Generator: Adobe Illustrator 16.0.0, SVG Export Plug-In . SVG Version: 6.00 Build 0)  -->
<!DOCTYPE svg PUBLIC "-//W3C//DTD SVG 1.1//EN" "http://www.w3.org/Graphics/SVG/1.1/DTD/svg11.dtd">
<svg version="1.1" id="Layer_1" xmlns="http://www.w3.org/2000/svg" xmlns:xlink="http://www.w3.org/1999/xlink" x="0px" y="0px"
	 width="40px" height="40px" viewBox="0 0 40 40" enable-background="new 0 0 40 40" xml:space="preserve">
<g>
	<path fill="#A39E99" d="M20.148,30.889c0-3.408,0-13.097,0-16.612c-1.633-2.449-9.164-3.621-12.304-3.621c0,0.672,0,1.47,0,2.352
		c0,4.713,0,11.788,0,14.26C11.338,27.268,18.703,28.492,20.148,30.889z"/>
	<path fill="#A39E99" d="M20.423,30.889c1.442-2.396,8.81-3.621,12.302-3.621c0-2.475,0-9.547,0-14.26c0-0.882,0-1.681,0-2.352
		c-3.138,0-10.67,1.172-12.302,3.621C20.423,17.791,20.423,27.48,20.423,30.889z"/>
</g>
<g>
</g>
<g>
</g>
<g>
</g>
<g>
</g>
<g>
</g>
<g>
</g>
</svg>
