<?xml version="1.0" encoding="utf-8"?>
<!-- Generator: Adobe Illustrator 16.0.0, SVG Export Plug-In . SVG Version: 6.00 Build 0)  -->
<!DOCTYPE svg PUBLIC "-//W3C//DTD SVG 1.1//EN" "http://www.w3.org/Graphics/SVG/1.1/DTD/svg11.dtd">
<svg version="1.1" id="Layer_1" xmlns="http://www.w3.org/2000/svg" xmlns:xlink="http://www.w3.org/1999/xlink" x="0px" y="0px"
	 width="40px" height="40px" viewBox="0 0 40 40" enable-background="new 0 0 40 40" xml:space="preserve">
<path fill="#A39E99" d="M30.658,29.342c-0.512-2.434-7.5-2.176-9.187-4.07c-0.351-0.408-0.351-0.408-0.114-1.893
	c0.409-1.674,0.774-0.635,1.357-3.963c0.49-2.797-0.554-5.2-3.715-5.2s-4.205,2.402-3.717,5.2c0.586,3.328,0.949,2.289,1.359,3.963
	c0.234,1.484,0.234,1.484-0.117,1.893c-1.686,1.895-8.672,1.637-9.184,4.07C7.282,29.623,7,31.217,7,31.217h24
	C31,31.217,30.718,29.623,30.658,29.342z"/>
<polygon fill="#A39E99" points="33.412,14.814 29.412,14.814 31.497,8.785 24.586,17.195 28.586,17.195 26.502,23.225 "/>
<g>
</g>
<g>
</g>
<g>
</g>
<g>
</g>
<g>
</g>
<g>
</g>
</svg>
