<?xml version="1.0" encoding="utf-8"?>
<!-- Generator: Adobe Illustrator 16.0.0, SVG Export Plug-In . SVG Version: 6.00 Build 0)  -->
<!DOCTYPE svg PUBLIC "-//W3C//DTD SVG 1.1//EN" "http://www.w3.org/Graphics/SVG/1.1/DTD/svg11.dtd">
<svg version="1.1" id="Layer_1" xmlns="http://www.w3.org/2000/svg" xmlns:xlink="http://www.w3.org/1999/xlink" x="0px" y="0px"
	 width="368px" height="58px" viewBox="0 0 368 58" enable-background="new 0 0 368 58" xml:space="preserve">
<path fill="#494A41" d="M1,2.073h1.857v52.158h30.18v1.662H1V2.073z"/>
<path fill="#494A41" d="M58.155,2.073h2.148l19.047,53.82h-1.854l-6.153-16.998H46.825l-6.055,16.998h-1.956L58.155,2.073z
	 M70.755,37.334L59.23,3.931L47.411,37.334H70.755z"/>
<path fill="#494A41" d="M86.857,2.073h14.163c9.475,0,18.559,2.344,18.559,12.404c0,7.619-4.884,11.721-12.893,12.698
	c7.618,0.782,14.26,5.177,14.26,13.771c0,10.452-7.521,14.946-19.633,14.946H86.857V2.073z M99.751,26.296
	c6.445,0,17.875-0.291,17.875-11.722c0-9.179-8.691-10.841-16.41-10.841H88.714v22.562H99.751z M101.216,54.231
	c7.425,0,17.876-1.659,17.876-13.381c0-10.549-10.256-12.893-18.853-12.893H88.714v26.273H101.216z"/>
<path fill="#494A41" d="M129.881,2.073h29.689v1.66h-27.837v23.345h23.541v1.661h-23.541v25.492h29.5v1.662h-31.353V2.073z"/>
<path fill="#EC2137" d="M279.51,45.052c-3.811,7.911-10.939,11.914-21.197,11.914c-15.921,0-24.418-12.794-24.418-28.324
	C233.895,13.013,242.392,1,258.312,1c9.379,0,16.312,3.808,20.514,10.45l-1.662,0.977c-3.613-6.252-10.354-9.768-18.852-9.768
	c-14.553,0-22.465,11.428-22.465,25.982c0,14.553,7.912,26.665,22.465,26.665c9.477,0,16.021-3.81,19.535-11.036L279.51,45.052z"/>
<path fill="#EC2137" d="M303.66,2.073h2.146l19.047,53.82H323l-6.156-16.998h-24.516l-6.055,16.998h-1.955L303.66,2.073z
	 M316.26,37.334L304.732,3.931l-11.818,33.403H316.26z"/>
<path fill="#EC2137" d="M332.363,2.073h15.625c12.111,0,18.461,4.787,18.461,14.553c0,11.135-7.91,15.239-18.363,15.239h-13.869
	v24.028h-1.854V2.073z M347.697,30.204c10.938,0,16.799-4.297,16.799-13.578c0-9.377-6.641-12.893-16.213-12.893h-14.066v26.471
	H347.697z"/>
<path fill="#494A41" d="M198.021,28.401l26.377-26.376l1.189,1.091L200.2,28.401l27.508,27.506L226.62,57L198.021,28.401z
	 M198.021,28.401"/>
<path fill="#EC2137" d="M200.2,28.401 M172.126,56.577l-1.093-1.189l26.987-26.986l-25.6-25.6l1.09-1.09L200.2,28.401
	L172.126,56.577z"/>
</svg>
