<?xml version="1.0" encoding="utf-8"?>
<!-- Generator: Adobe Illustrator 16.0.0, SVG Export Plug-In . SVG Version: 6.00 Build 0)  -->
<!DOCTYPE svg PUBLIC "-//W3C//DTD SVG 1.1//EN" "http://www.w3.org/Graphics/SVG/1.1/DTD/svg11.dtd">
<svg version="1.1" id="Layer_1" xmlns="http://www.w3.org/2000/svg" xmlns:xlink="http://www.w3.org/1999/xlink" x="0px" y="0px"
	 width="22px" height="22px" viewBox="0 0 22 22" enable-background="new 0 0 22 22" xml:space="preserve">
<path fill="#EC2137" d="M14.301,12.514c0.873-1.224,1.392-2.72,1.392-4.339c0-4.143-3.357-7.5-7.5-7.5s-7.5,3.357-7.5,7.5
	c0,4.142,3.357,7.5,7.5,7.5c1.619,0,3.114-0.52,4.341-1.391l6.025,6.023c0.489,0.49,1.279,0.49,1.768,0
	c0.488-0.488,0.488-1.277,0-1.766L14.301,12.514z M12.485,10.7c-0.431,0.732-1.036,1.337-1.769,1.769
	c-0.743,0.438-1.6,0.705-2.524,0.705c-2.762,0-5-2.238-5-5c0-2.76,2.238-5,5-5s5,2.24,5,5C13.192,9.1,12.923,9.956,12.485,10.7z"/>
</svg>
