<?xml version="1.0" encoding="utf-8"?>
<!-- Generator: Adobe Illustrator 16.0.0, SVG Export Plug-In . SVG Version: 6.00 Build 0)  -->
<!DOCTYPE svg PUBLIC "-//W3C//DTD SVG 1.1//EN" "http://www.w3.org/Graphics/SVG/1.1/DTD/svg11.dtd">
<svg version="1.1" id="Layer_1" xmlns="http://www.w3.org/2000/svg" xmlns:xlink="http://www.w3.org/1999/xlink" x="0px" y="0px"
	 width="19px" height="30px" viewBox="0 0 19 30" enable-background="new 0 0 19 30" xml:space="preserve">
<g opacity="0.1">
	<rect fill="none" width="19" height="30"/>
	<path fill="none" d="M13,30h6v-6c-1.655,0.002-3.155,0.675-4.24,1.76S13.002,28.345,13,30z"/>
	<path fill="none" d="M6,15c-0.002-1.655-0.675-3.155-1.76-4.24S1.655,9.002,0,9v12c1.655-0.005,3.155-0.675,4.24-1.76
		S5.998,16.655,6,15z"/>
	<path fill="none" d="M12.635,23.635c0.423-0.422,0.891-0.805,1.391-1.135c-0.5-0.33-0.968-0.712-1.391-1.135
		C11.008,19.735,10,17.485,10,15c0-2.484,1.008-4.734,2.635-6.365c0.423-0.422,0.891-0.805,1.391-1.135
		c-0.5-0.33-0.968-0.712-1.391-1.135C11.008,4.735,10,2.485,10,0H9c0,2.485-1.008,4.735-2.635,6.362
		C5.939,6.785,5.475,7.167,4.973,7.5c0.502,0.33,0.967,0.713,1.393,1.135C7.992,10.266,9,12.516,9,15
		c0,2.485-1.008,4.735-2.635,6.365C5.942,21.788,5.475,22.17,4.975,22.5c0.5,0.33,0.968,0.713,1.391,1.135
		C7.992,25.266,9,27.516,9,30h1C10,27.516,11.008,25.266,12.635,23.635z"/>
	<path fill="none" d="M13,15c0.002,1.655,0.675,3.155,1.76,4.24S17.345,20.998,19,21V9c-1.655,0.002-3.155,0.675-4.24,1.76
		S13.002,13.345,13,15z"/>
	<path fill="none" d="M6,0H0v6c1.655-0.002,3.155-0.675,4.24-1.76S5.995,1.655,6,0z"/>
	<path fill="none" d="M0,24v6h6c-0.005-1.655-0.675-3.155-1.76-4.24S1.655,24.002,0,24z"/>
	<path fill="none" d="M19,6V0h-6c0.002,1.655,0.675,3.155,1.76,4.24S17.345,5.998,19,6z"/>
	<path fill="#4D4D4D" d="M6.365,6.362C7.992,4.735,9,2.485,9,0H6C5.995,1.655,5.325,3.155,4.24,4.24S1.655,5.998,0,6
		c1.838,0,3.547,0.553,4.973,1.5C5.475,7.167,5.939,6.785,6.365,6.362z"/>
	<path d="M6.365,21.365C7.992,19.735,9,17.485,9,15c0-2.484-1.008-4.734-2.635-6.365C5.939,8.213,5.475,7.83,4.973,7.5
		C3.547,6.553,1.838,6,0,6v3c1.655,0.002,3.155,0.675,4.24,1.76S5.998,13.345,6,15c-0.002,1.655-0.675,3.155-1.76,4.24
		S1.655,20.995,0,21c1.84,0,3.55,0.553,4.975,1.5C5.475,22.17,5.942,21.788,6.365,21.365z"/>
	<path fill="#4D4D4D" d="M4.975,22.5C3.55,21.553,1.84,21,0,21v3c1.655,0.002,3.155,0.675,4.24,1.76S5.995,28.345,6,30h3
		c0-2.484-1.008-4.734-2.635-6.365C5.942,23.213,5.475,22.83,4.975,22.5z"/>
	<path d="M14.025,7.5C15.45,8.447,17.16,9,19,9V6c-1.655-0.002-3.155-0.675-4.24-1.76S13.002,1.655,13,0h-3
		c0,2.485,1.008,4.735,2.635,6.365C13.058,6.788,13.525,7.17,14.025,7.5z"/>
	<path fill="#4D4D4D" d="M12.635,8.635C11.008,10.266,10,12.516,10,15c0,2.485,1.008,4.735,2.635,6.365
		c0.423,0.423,0.891,0.805,1.391,1.135C15.45,23.447,17.16,24,19,24v-3c-1.655-0.002-3.155-0.675-4.24-1.76S13.002,16.655,13,15
		c0.002-1.655,0.675-3.155,1.76-4.24S17.345,9.002,19,9c-1.84,0-3.55-0.553-4.975-1.5C13.525,7.83,13.058,8.213,12.635,8.635z"/>
	<path d="M12.635,23.635C11.008,25.266,10,27.516,10,30h3c0.002-1.655,0.675-3.155,1.76-4.24S17.345,24.002,19,24
		c-1.84,0-3.55-0.553-4.975-1.5C13.525,22.83,13.058,23.213,12.635,23.635z"/>
</g>
<g>
</g>
<g>
</g>
<g>
</g>
<g>
</g>
<g>
</g>
<g>
</g>
</svg>
